# xmcd
#
# Track frame offsets:
#	150
#	17555
#	33072
#	47638
#	58917
#	71458
#	88652
#	103678
#	117396
#	134860
#	149502
#	163287
#	175433
#	197606
#
# Disc length: 2806 seconds
#
# Revision: 1
# Processed by: cddbd v1.5.2PL0 Copyright (c) Steve Scherf et al.
# Submitted via: audiograbber 1.83.01
#
DISCID=d00af40e
DTITLE=Various Artist - Mr Music Country 07
DYEAR=2016
DGENRE=Country
TTITLE0=The Swon Brothers - Chasing You Around
TTITLE1=Shelly Fairchild - I'm Goin' Back
TTITLE2=Tyler Farr - A Guy Walks Into A Bar
TTITLE3=Martina McBride - The Time Has Come
TTITLE4=Restless Heart - We Got The Love
TTITLE5=Pam Tillis - Spilled Perfume
TTITLE6=Old Dominion - Beer Can In A Truck Bed
TTITLE7=Cam - Half Broke Heart
TTITLE8=Craig Morgan - Love Remembers
TTITLE9=Rosanne Cash - Seven Year Ache
TTITLE10=Collin Raye - That's My Story
TTITLE11=Gretchen Wilson - I Don't Feel Like Loving You Today
TTITLE12=Radney Foster - Hammer And Nails
TTITLE13=Alan Jackson - Hard Hat And A Hammer
EXTD=
EXTT0=
EXTT1=
EXTT2=
EXTT3=
EXTT4=
EXTT5=
EXTT6=
EXTT7=
EXTT8=
EXTT9=
EXTT10=
EXTT11=
EXTT12=
EXTT13=
PLAYORDER=
